<svg width="185" height="29" viewBox="0 0 185 29" fill="none" xmlns="http://www.w3.org/2000/svg">
<path fill-rule="evenodd" clip-rule="evenodd" d="M54.3621 11.1858H54.8092C55.5145 11.593 56.4055 11.593 57.2984 11.593H60.826C62.9437 11.593 64.581 10.5903 64.581 8.69351C64.581 7.16896 63.5029 6.16861 60.6806 6.16861H49.1966V19.5423C49.1966 22.0303 49.1966 26.1896 50.4973 27.2665V27.7141H41.2859V27.2665C42.6971 26.0406 42.6971 20.992 42.6971 19.5423V6.09027C42.6971 4.60372 42.6971 2.33887 41.2859 1.11591V0.668854H60.3434C66.587 0.668854 70.9695 3.30652 70.9695 8.6561C70.9695 13.1122 67.8456 15.4922 63.5379 16.4961L63.4637 16.606L65.3213 19.243C66.9937 21.5833 70.2987 25.4487 72.3409 26.8242V27.2665C71.2663 28.0472 70.1882 28.385 68.5901 28.385C64.5798 28.385 62.1268 26.1896 60.0091 23.1833L55.7377 17.1278H51.2418L51.0922 16.7544L54.3609 11.1852L54.3621 11.1858ZM99.4325 17.2026L94.8654 7.31857H94.7169L90.1819 17.2026H99.4325ZM78.407 27.7148V27.2671C79.9678 26.0798 82.3074 20.9926 82.9777 19.5429L89.0331 6.09085C89.7384 4.6043 90.7779 2.30145 89.6607 1.11649V0.669464H99.2865V1.11649C98.8756 1.74934 99.325 3.0091 100.064 4.60489L107.087 19.5429C107.754 20.9926 110.207 26.1196 111.544 27.2671V27.7148H102.627V27.2671C103.52 26.0798 102.407 23.8891 101.74 22.4394L101.588 22.478H88.4733L88.3635 22.4394C87.6962 23.8891 86.5083 26.0798 87.3994 27.2671V27.7148H78.407ZM132.759 10.959H133.204C133.838 11.2956 134.615 11.4452 135.508 11.4452H137.55C139.483 11.4452 141.231 11.0361 141.231 8.80569C141.231 7.1357 140.263 6.16861 137.327 6.16861H127.374V19.5423C127.374 20.992 127.374 26.0406 128.782 27.2665V27.7141H119.567V27.2665C120.982 26.0406 120.982 20.992 120.982 19.5423V6.09027C120.982 4.60372 120.982 2.33887 119.567 1.11591V0.668854H137.327C143.606 0.668854 147.616 3.75356 147.616 9.02893C147.616 13.6346 144.61 16.9776 137.288 16.9776H129.675L129.488 16.606L132.759 10.9578V10.959ZM180.985 27.7148H157.435V27.2671C158.734 26.0412 158.772 20.9926 158.772 19.5429V6.09085C158.772 4.6043 158.734 2.33945 157.435 1.11649V0.669464H181.357L183.215 7.4278L182.843 7.72882C181.099 6.46667 177.199 6.01962 173.405 6.01962H165.157V11.7776H181.283L181.467 12.1463L178.273 18.0219H177.79C176.787 17.24 174.262 16.9438 172.182 16.9438H165.157V22.3687H171.139C174.224 22.3687 181.024 22.0677 184.367 20.7652L184.665 21.0633L180.985 27.7148ZM17.9926 0.297211C24.0481 0.297211 27.7639 2.1192 29.8803 3.11954L27.9479 9.92065H27.5406C24.8632 6.27907 20.3323 5.61115 17.2867 5.61115C11.749 5.61115 6.80902 7.80417 6.80902 14.1921C6.80902 19.8041 10.3378 22.7748 17.3224 22.7748C20.6653 22.7748 22.5621 22.1793 24.8246 20.992V17.7185C23.4164 17.7185 17.992 17.8681 14.5386 19.1689L14.2376 18.837L17.843 12.4075H30.9186V12.8551C30.2133 14.0425 29.9533 16.1239 29.9533 17.8681C29.9533 19.6545 30.2876 21.8107 31.0285 23.4059V23.8535C28.1313 26.1576 22.7841 28.087 16.9133 28.087C7.88653 28.087 0.494141 23.5555 0.494141 14.3019C0.494141 4.6435 8.48139 0.296631 17.9914 0.296631L17.9926 0.297211Z" fill="#52006B"/>
</svg>
